<svg width="115" height="20" viewBox="0 0 115 20" fill="none" xmlns="http://www.w3.org/2000/svg">
<path d="M-4.29153e-06 18.888V2.088H3.216L10.368 13.944H8.664L15.696 2.088H18.888L18.936 18.888H15.288L15.264 7.68H15.936L10.32 17.112H8.568L2.832 7.68H3.648V18.888H-4.29153e-06ZM28.8019 19.08C27.4259 19.08 26.2019 18.792 25.1299 18.216C24.0739 17.64 23.2339 16.856 22.6099 15.864C22.0019 14.856 21.6979 13.712 21.6979 12.432C21.6979 11.136 22.0019 9.992 22.6099 9C23.2339 7.992 24.0739 7.208 25.1299 6.648C26.2019 6.072 27.4259 5.784 28.8019 5.784C30.1619 5.784 31.3779 6.072 32.4499 6.648C33.5219 7.208 34.3619 7.984 34.9699 8.976C35.5779 9.968 35.8819 11.12 35.8819 12.432C35.8819 13.712 35.5779 14.856 34.9699 15.864C34.3619 16.856 33.5219 17.64 32.4499 18.216C31.3779 18.792 30.1619 19.08 28.8019 19.08ZM28.8019 16.008C29.4259 16.008 29.9859 15.864 30.4819 15.576C30.9779 15.288 31.3699 14.88 31.6579 14.352C31.9459 13.808 32.0899 13.168 32.0899 12.432C32.0899 11.68 31.9459 11.04 31.6579 10.512C31.3699 9.984 30.9779 9.576 30.4819 9.288C29.9859 9 29.4259 8.856 28.8019 8.856C28.1779 8.856 27.6179 9 27.1219 9.288C26.6259 9.576 26.2259 9.984 25.9219 10.512C25.6339 11.04 25.4899 11.68 25.4899 12.432C25.4899 13.168 25.6339 13.808 25.9219 14.352C26.2259 14.88 26.6259 15.288 27.1219 15.576C27.6179 15.864 28.1779 16.008 28.8019 16.008ZM41.5369 18.888L36.1129 5.976H39.9769L44.4889 17.088H42.5689L47.2489 5.976H50.8489L45.4009 18.888H41.5369ZM52.3766 18.888V5.976H56.1206V18.888H52.3766ZM54.2486 4.176C53.5606 4.176 53.0006 3.976 52.5686 3.576C52.1366 3.176 51.9206 2.68 51.9206 2.088C51.9206 1.496 52.1366 1 52.5686 0.6C53.0006 0.199999 53.5606 -9.53674e-07 54.2486 -9.53674e-07C54.9366 -9.53674e-07 55.4966 0.191999 55.9286 0.576C56.3606 0.944 56.5766 1.424 56.5766 2.016C56.5766 2.64 56.3606 3.16 55.9286 3.576C55.5126 3.976 54.9526 4.176 54.2486 4.176ZM66.0034 19.08C64.5314 19.08 63.2354 18.792 62.1154 18.216C61.0114 17.64 60.1554 16.856 59.5474 15.864C58.9394 14.856 58.6354 13.712 58.6354 12.432C58.6354 11.136 58.9314 9.992 59.5234 9C60.1314 7.992 60.9554 7.208 61.9954 6.648C63.0354 6.072 64.2114 5.784 65.5234 5.784C66.7874 5.784 67.9234 6.056 68.9314 6.6C69.9554 7.128 70.7634 7.896 71.3554 8.904C71.9474 9.896 72.2434 11.088 72.2434 12.48C72.2434 12.624 72.2354 12.792 72.2194 12.984C72.2034 13.16 72.1874 13.328 72.1714 13.488H61.6834V11.304H70.2034L68.7634 11.952C68.7634 11.28 68.6274 10.696 68.3554 10.2C68.0834 9.704 67.7074 9.32 67.2274 9.048C66.7474 8.76 66.1874 8.616 65.5474 8.616C64.9074 8.616 64.3394 8.76 63.8434 9.048C63.3634 9.32 62.9874 9.712 62.7154 10.224C62.4434 10.72 62.3074 11.312 62.3074 12V12.576C62.3074 13.28 62.4594 13.904 62.7634 14.448C63.0834 14.976 63.5234 15.384 64.0834 15.672C64.6594 15.944 65.3314 16.08 66.0994 16.08C66.7874 16.08 67.3874 15.976 67.8994 15.768C68.4274 15.56 68.9074 15.248 69.3394 14.832L71.3314 16.992C70.7394 17.664 69.9954 18.184 69.0994 18.552C68.2034 18.904 67.1714 19.08 66.0034 19.08ZM79.08 19.08C77.976 19.08 76.912 18.952 75.888 18.696C74.88 18.424 74.08 18.088 73.488 17.688L74.736 15C75.328 15.368 76.024 15.672 76.824 15.912C77.64 16.136 78.44 16.248 79.224 16.248C80.088 16.248 80.696 16.144 81.048 15.936C81.416 15.728 81.6 15.44 81.6 15.072C81.6 14.768 81.456 14.544 81.168 14.4C80.896 14.24 80.528 14.12 80.064 14.04C79.6 13.96 79.088 13.88 78.528 13.8C77.984 13.72 77.432 13.616 76.872 13.488C76.312 13.344 75.8 13.136 75.336 12.864C74.872 12.592 74.496 12.224 74.208 11.76C73.936 11.296 73.8 10.696 73.8 9.96C73.8 9.144 74.032 8.424 74.496 7.8C74.976 7.176 75.664 6.688 76.56 6.336C77.456 5.968 78.528 5.784 79.776 5.784C80.656 5.784 81.552 5.88 82.464 6.072C83.376 6.264 84.136 6.544 84.744 6.912L83.496 9.576C82.872 9.208 82.24 8.96 81.6 8.832C80.976 8.688 80.368 8.616 79.776 8.616C78.944 8.616 78.336 8.728 77.952 8.952C77.568 9.176 77.376 9.464 77.376 9.816C77.376 10.136 77.512 10.376 77.784 10.536C78.072 10.696 78.448 10.824 78.912 10.92C79.376 11.016 79.88 11.104 80.424 11.184C80.984 11.248 81.544 11.352 82.104 11.496C82.664 11.64 83.168 11.848 83.616 12.12C84.08 12.376 84.456 12.736 84.744 13.2C85.032 13.648 85.176 14.24 85.176 14.976C85.176 15.776 84.936 16.488 84.456 17.112C83.976 17.72 83.28 18.2 82.368 18.552C81.472 18.904 80.376 19.08 79.08 19.08ZM88.902 19.08C88.262 19.08 87.71 18.864 87.246 18.432C86.798 17.984 86.574 17.416 86.574 16.728C86.574 16.04 86.798 15.488 87.246 15.072C87.71 14.64 88.262 14.424 88.902 14.424C89.558 14.424 90.11 14.64 90.558 15.072C91.006 15.488 91.23 16.04 91.23 16.728C91.23 17.416 91.006 17.984 90.558 18.432C90.11 18.864 89.558 19.08 88.902 19.08ZM93.7672 18.888V5.976H97.5112V18.888H93.7672ZM95.6392 4.176C94.9512 4.176 94.3912 3.976 93.9592 3.576C93.5272 3.176 93.3112 2.68 93.3112 2.088C93.3112 1.496 93.5272 1 93.9592 0.6C94.3912 0.199999 94.9512 -9.53674e-07 95.6392 -9.53674e-07C96.3272 -9.53674e-07 96.8872 0.191999 97.3192 0.576C97.7512 0.944 97.9672 1.424 97.9672 2.016C97.9672 2.64 97.7512 3.16 97.3192 3.576C96.9032 3.976 96.3432 4.176 95.6392 4.176ZM107.13 19.08C105.754 19.08 104.53 18.792 103.458 18.216C102.402 17.64 101.562 16.856 100.938 15.864C100.33 14.856 100.026 13.712 100.026 12.432C100.026 11.136 100.33 9.992 100.938 9C101.562 7.992 102.402 7.208 103.458 6.648C104.53 6.072 105.754 5.784 107.13 5.784C108.49 5.784 109.706 6.072 110.778 6.648C111.85 7.208 112.69 7.984 113.298 8.976C113.906 9.968 114.21 11.12 114.21 12.432C114.21 13.712 113.906 14.856 113.298 15.864C112.69 16.856 111.85 17.64 110.778 18.216C109.706 18.792 108.49 19.08 107.13 19.08ZM107.13 16.008C107.754 16.008 108.314 15.864 108.81 15.576C109.306 15.288 109.698 14.88 109.986 14.352C110.274 13.808 110.418 13.168 110.418 12.432C110.418 11.68 110.274 11.04 109.986 10.512C109.698 9.984 109.306 9.576 108.81 9.288C108.314 9 107.754 8.856 107.13 8.856C106.506 8.856 105.946 9 105.45 9.288C104.954 9.576 104.554 9.984 104.25 10.512C103.962 11.04 103.818 11.68 103.818 12.432C103.818 13.168 103.962 13.808 104.25 14.352C104.554 14.88 104.954 15.288 105.45 15.576C105.946 15.864 106.506 16.008 107.13 16.008Z" fill="white"/>
</svg>
