<svg width="17" height="14" viewBox="0 0 17 14" fill="none" xmlns="http://www.w3.org/2000/svg">
<path d="M16.2059 12.0298L13.0947 9.52633C14.0985 8.49428 14.6432 7.21982 14.6412 5.9078C14.6412 4.73935 14.2118 3.59714 13.4074 2.62561C12.603 1.65407 11.4597 0.896855 10.122 0.449707C8.78438 0.00255974 7.31246 -0.114434 5.89241 0.113519C4.47235 0.341473 3.16795 0.904137 2.14415 1.73036C1.12035 2.55658 0.423132 3.60925 0.140666 4.75525C-0.1418 5.90125 0.00317187 7.08911 0.557249 8.16862C1.11133 9.24813 2.04962 10.1708 3.25348 10.82C4.45735 11.4691 5.87271 11.8156 7.32058 11.8156C8.94635 11.8172 10.5256 11.3777 11.8044 10.5676L14.9065 13.0784C14.9916 13.1476 15.0928 13.2026 15.2043 13.24C15.3158 13.2775 15.4354 13.2968 15.5562 13.2968C15.677 13.2968 15.7966 13.2775 15.9081 13.24C16.0196 13.2026 16.1209 13.1476 16.2059 13.0784C16.2917 13.0097 16.3598 12.9281 16.4062 12.8381C16.4527 12.7481 16.4766 12.6516 16.4766 12.5541C16.4766 12.4566 16.4527 12.3601 16.4062 12.2701C16.3598 12.1801 16.2917 12.0984 16.2059 12.0298ZM1.83015 5.9078C1.83015 5.03146 2.15216 4.17481 2.75545 3.44616C3.35875 2.71751 4.21624 2.14959 5.21948 1.81423C6.22273 1.47887 7.32667 1.39113 8.39171 1.56209C9.45675 1.73306 10.435 2.15505 11.2029 2.77472C11.9707 3.39438 12.4937 4.18389 12.7055 5.04339C12.9174 5.90289 12.8086 6.79379 12.3931 7.60342C11.9775 8.41305 11.2738 9.10505 10.3709 9.59192C9.468 10.0788 8.40648 10.3387 7.32058 10.3387C5.86443 10.3387 4.46791 9.87183 3.43826 9.04089C2.4086 8.20994 1.83015 7.08294 1.83015 5.9078Z" fill="#CDCDCD"/>
</svg>
