<svg width="32" height="23" viewBox="0 0 32 23" fill="none" xmlns="http://www.w3.org/2000/svg">
<path d="M26.88 9.88203C27.085 9.33867 27.2 8.74453 27.2 8.125C27.2 5.43359 25.05 3.25 22.4 3.25C21.415 3.25 20.495 3.55469 19.735 4.07266C18.35 1.63516 15.765 0 12.8 0C8.38 0 4.8 3.63594 4.8 8.125C4.8 8.26211 4.805 8.39922 4.81 8.53633C2.01 9.53672 0 12.2484 0 15.4375C0 19.4746 3.225 22.75 7.2 22.75H25.6C29.135 22.75 32 19.8402 32 16.25C32 13.1066 29.8 10.4813 26.88 9.88203ZM20.235 14.3863L14.965 19.7387C14.655 20.0535 14.145 20.0535 13.835 19.7387L8.565 14.3863C8.06 13.8734 8.42 13 9.13 13H12.4V7.3125C12.4 6.86562 12.76 6.5 13.2 6.5H15.6C16.04 6.5 16.4 6.86562 16.4 7.3125V13H19.67C20.38 13 20.74 13.8734 20.235 14.3863Z" fill="#1D4ED8"/>
</svg>
