<svg width="22" height="24" viewBox="0 0 22 24" fill="none" xmlns="http://www.w3.org/2000/svg">
<path d="M21.6093 8.3778C21.5412 8.16181 21.4158 7.97202 21.2487 7.83186C21.0816 7.69171 20.8801 7.60733 20.6689 7.58913L14.4929 7.06063L11.8203 0.689462C11.7352 0.48426 11.5967 0.309971 11.4217 0.187629C11.2466 0.0652881 11.0424 0.000123526 10.8337 1.75442e-07C10.625 -0.000123175 10.4208 0.0648 10.2456 0.186934C10.0704 0.309069 9.93177 0.483194 9.84644 0.688296L7.17386 7.06063L0.997778 7.58913C0.790272 7.60683 0.591895 7.68854 0.42638 7.82448C0.260865 7.96042 0.135221 8.14484 0.0644794 8.35566C-0.00626208 8.56649 -0.0191056 8.7948 0.0274855 9.01328C0.0740765 9.23176 0.178129 9.43116 0.327195 9.58763L4.89128 14.3791L3.27711 21.9065C3.2281 22.1343 3.24381 22.3728 3.3222 22.5909C3.40059 22.809 3.53805 22.9967 3.71673 23.1296C3.89541 23.2626 4.10707 23.3346 4.32424 23.3364C4.54141 23.3382 4.75407 23.2696 4.93461 23.1396L10.8334 18.9046L16.7321 23.1396C16.9166 23.2716 17.1343 23.3395 17.3557 23.3343C17.5772 23.329 17.7918 23.2509 17.9708 23.1104C18.1498 22.9698 18.2845 22.7737 18.3569 22.5482C18.4292 22.3228 18.4357 22.0789 18.3755 21.8493L16.3941 14.3826L21.3081 9.6203C21.6299 9.30763 21.7479 8.81996 21.6093 8.3778Z" fill="#757575"/>
</svg>
