<svg width="25" height="18" viewBox="0 0 25 18" fill="none" xmlns="http://www.w3.org/2000/svg">
<path d="M9.06178 8.5957C9.06178 9.37892 9.39596 10.1301 9.9908 10.6839C10.5856 11.2377 11.3924 11.5488 12.2337 11.5488C13.0749 11.5488 13.8817 11.2377 14.4765 10.6839C15.0713 10.1301 15.4055 9.37892 15.4055 8.5957C15.4055 7.81249 15.0713 7.06135 14.4765 6.50753C13.8817 5.95371 13.0749 5.64258 12.2337 5.64258C11.3924 5.64258 10.5856 5.95371 9.9908 6.50753C9.39596 7.06135 9.06178 7.81249 9.06178 8.5957ZM24.5303 7.91543C21.8456 2.6499 17.7873 0 12.3469 0C6.90377 0 2.8483 2.6499 0.163536 7.91807C0.0558495 8.13037 0 8.36224 0 8.59702C0 8.83181 0.0558495 9.06368 0.163536 9.27598C2.8483 14.5415 6.9066 17.1914 12.3469 17.1914C17.7901 17.1914 21.8456 14.5415 24.5303 9.27334C24.7484 8.84619 24.7484 8.35049 24.5303 7.91543ZM12.2337 13.2363C9.48092 13.2363 7.24928 11.1586 7.24928 8.5957C7.24928 6.03281 9.48092 3.95508 12.2337 3.95508C14.9864 3.95508 17.218 6.03281 17.218 8.5957C17.218 11.1586 14.9864 13.2363 12.2337 13.2363Z" fill="#757575"/>
</svg>
