<svg width="17" height="22" viewBox="0 0 17 22" fill="none" xmlns="http://www.w3.org/2000/svg">
<path d="M1.84069e-07 2.75V21.3125C-8.71665e-05 21.4319 0.0309162 21.5492 0.0899588 21.653C0.149001 21.7568 0.234048 21.8434 0.336726 21.9043C0.439405 21.9652 0.556175 21.9983 0.675544 22.0004C0.794913 22.0025 0.912766 21.9734 1.0175 21.9161L8.25 17.9699L15.4825 21.9161C15.5872 21.9734 15.7051 22.0025 15.8245 22.0004C15.9438 21.9983 16.0606 21.9652 16.1633 21.9043C16.266 21.8434 16.351 21.7568 16.41 21.653C16.4691 21.5492 16.5001 21.4319 16.5 21.3125V2.75C16.5 2.02065 16.2103 1.32118 15.6945 0.805456C15.1788 0.289731 14.4793 0 13.75 0L2.75 0C2.02065 0 1.32118 0.289731 0.805456 0.805456C0.289731 1.32118 1.84069e-07 2.02065 1.84069e-07 2.75Z" fill="#757575"/>
</svg>
