<svg width="17" height="21" viewBox="0 0 17 21" fill="none" xmlns="http://www.w3.org/2000/svg">
<path d="M15.9818 8.22074C16.6148 8.61605 17 9.31234 17 10.0625C17 10.8127 16.6148 11.509 15.9818 11.8639L3.2331 19.7702C2.57701 20.2149 1.75578 20.2329 1.08552 19.851C0.756096 19.6634 0.481877 19.3902 0.291085 19.0593C0.100293 18.7285 -0.000181854 18.3521 2.4709e-07 17.9688V2.15629C5.40872e-05 1.77321 0.100641 1.39706 0.291421 1.06649C0.482201 0.735929 0.756292 0.462878 1.08552 0.275408C1.41482 0.0881236 1.78734 -0.00680489 2.16477 0.000379536C2.54221 0.00756397 2.91095 0.116602 3.2331 0.316287L15.9818 8.22074Z" fill="#1D4ED8"/>
</svg>
